<?xml version="1.0" encoding="utf-8"?>
<!-- Generator: Adobe Illustrator 22.1.0, SVG Export Plug-In . SVG Version: 6.00 Build 0)  -->
<svg version="1.1" id="Layer_1" xmlns="http://www.w3.org/2000/svg" xmlns:xlink="http://www.w3.org/1999/xlink" x="0px" y="0px"
	 viewBox="0 0 16.2 18" style="enable-background:new 0 0 16.2 18;" xml:space="preserve">
<path id="Icon_awesome-calendar" d="M0.4,6.8h15.3c0.2,0,0.4,0.2,0.4,0.4v9.1c0,0.9-0.8,1.7-1.7,1.7H1.7C0.8,18,0,17.3,0,16.3V7.2
	C0,6.9,0.2,6.7,0.4,6.8z M16.2,5.2V3.9c0-0.9-0.8-1.7-1.7-1.7h-1.7V0.4c0-0.2-0.2-0.4-0.4-0.4h-1.4c-0.2,0-0.4,0.2-0.4,0.4v1.8H5.8
	V0.4C5.8,0.2,5.6,0,5.4,0H3.9C3.7,0,3.5,0.2,3.5,0.4v1.8H1.7C0.8,2.2,0,3,0,3.9v1.3c0,0.2,0.2,0.4,0.4,0.4h15.3
	C16,5.6,16.2,5.4,16.2,5.2z"/>
</svg>
