<?xml version="1.0" encoding="utf-8"?>
<!-- Generator: Adobe Illustrator 22.1.0, SVG Export Plug-In . SVG Version: 6.00 Build 0)  -->
<svg version="1.1" id="Layer_1" xmlns="http://www.w3.org/2000/svg" xmlns:xlink="http://www.w3.org/1999/xlink" x="0px" y="0px"
	 viewBox="0 0 16 18.3" enable-background="new 0 0 16 18.3" xml:space="preserve">
<path id="Icon_awesome-calendar-check" d="M15.6,5.7H0.4C0.2,5.7,0,5.5,0,5.3V4c0-0.9,0.8-1.7,1.7-1.7l0,0h1.7V0.4
	C3.4,0.2,3.6,0,3.9,0h1.4c0.2,0,0.4,0.2,0.4,0.4v1.9h4.6V0.4c0-0.2,0.2-0.4,0.4-0.4h1.4c0.2,0,0.4,0.2,0.4,0.4v1.9h1.7
	C15.2,2.3,16,3.1,16,4c0,0,0,0,0,0v1.3C16,5.5,15.8,5.7,15.6,5.7z M0.4,6.9h15.1C15.8,6.9,16,7,16,7.3v9.3c0,0.9-0.8,1.7-1.7,1.7
	c0,0,0,0,0,0H1.7c-0.9,0-1.7-0.8-1.7-1.7c0,0,0,0,0,0V7.3C0,7,0.2,6.9,0.4,6.9z M12.3,10.3l-1-1c-0.2-0.2-0.4-0.2-0.6,0L6.9,13
	l-1.6-1.7c-0.2-0.2-0.4-0.2-0.6,0l-1,1c-0.2,0.2-0.2,0.4,0,0.6l2.9,3c0.2,0.2,0.4,0.2,0.6,0l5.1-5.1C12.5,10.7,12.5,10.5,12.3,10.3
	L12.3,10.3z"/>
</svg>
