<?xml version="1.0" encoding="utf-8"?>
<!-- Generator: Adobe Illustrator 22.1.0, SVG Export Plug-In . SVG Version: 6.00 Build 0)  -->
<svg version="1.1" id="Group_6286" xmlns="http://www.w3.org/2000/svg" xmlns:xlink="http://www.w3.org/1999/xlink" x="0px" y="0px"
	 viewBox="0 0 5.6 12" style="enable-background:new 0 0 5.6 12;" xml:space="preserve">
<path id="Path_5319" d="M1.2,6v5.8c0,0.1,0.1,0.2,0.2,0.2l0,0h2.2c0.1,0,0.2-0.1,0.2-0.2l0,0V5.9h1.6c0.1,0,0.1-0.1,0.2-0.1L5.5,4
	c0-0.1-0.1-0.2-0.1-0.2c0,0,0,0,0,0H3.7V2.6c0-0.3,0.2-0.5,0.5-0.5h1.2c0.1,0,0.2-0.1,0.2-0.2l0,0V0.1C5.6,0.1,5.5,0,5.4,0l0,0h-2
	C2.2,0,1.2,1,1.2,2.2l0,0v1.7H0.2C0.1,3.9,0,3.9,0,4l0,0v1.8c0,0.1,0.1,0.2,0.2,0.2l0,0L1.2,6L1.2,6z"/>
</svg>
