<?xml version="1.0" encoding="utf-8"?>
<!-- Generator: Adobe Illustrator 22.1.0, SVG Export Plug-In . SVG Version: 6.00 Build 0)  -->
<svg version="1.1" id="Layer_1" xmlns="http://www.w3.org/2000/svg" xmlns:xlink="http://www.w3.org/1999/xlink" x="0px" y="0px"
	 viewBox="0 0 11.8 12" style="enable-background:new 0 0 11.8 12;" xml:space="preserve">
<path id="surface1" d="M6,4.9v2.3h3.3C8.9,8.7,7.5,9.7,6,9.6C4,9.6,2.4,8,2.4,6l0,0l0,0C2.4,4,4,2.4,6,2.4h0l0,0
	c0.9,0,1.7,0.3,2.4,0.9L10,1.6C7.6-0.7,3.8-0.5,1.6,2S-0.5,8.2,2,10.4c1.1,1,2.5,1.6,4,1.6c5,0,6.1-4.7,5.7-7L6,4.9z"/>
</svg>
