<?xml version="1.0" encoding="utf-8"?>
<!-- Generator: Adobe Illustrator 21.0.0, SVG Export Plug-In . SVG Version: 6.00 Build 0)  -->
<svg version="1.1" id="Layer_1" xmlns="http://www.w3.org/2000/svg" xmlns:xlink="http://www.w3.org/1999/xlink" x="0px" y="0px"
	 viewBox="-40.9 141 495.8 512" style="enable-background:new -40.9 141 495.8 512;" xml:space="preserve">
<path d="M436.6,356.3c2.6,2.7,4.1,6.1,4,9.6v268.5c0,7.1-6.5,13.5-13.5,13.5H-22.4c-7.1,0-13.5-6.5-13.5-13.5V184.8
	c0.2-6.4,5.6-13.3,13.5-13.5l0,0h268.5c3.4-0.1,6.9,1.4,9.6,4c2.7,2.6,4.2,6.1,4.2,9.5s-1.5,6.9-4.2,9.5c-2.7,2.6-6.1,4.1-9.6,4
	H-8.9v422.5h422.5V365.9c0-3.4,1.4-6.9,4-9.6c2.6-2.7,6.1-4.2,9.5-4.2C430.6,352.1,434,353.7,436.6,356.3z M376.3,156.3l21.8,21.1
	L155.3,420.2c-3,3-4.7,7-4.7,11.3c0,4.3,1.7,8.3,4.7,11.3c3.1,3.1,7.2,4.7,11.3,4.7c4.1,0,8.2-1.6,11.3-4.7l243.3-243.3l22.8,22
	l6.1-75.4L376.3,156.3z"/>
</svg>
