<?xml version="1.0" encoding="utf-8"?>
<!-- Generator: Adobe Illustrator 21.0.0, SVG Export Plug-In . SVG Version: 6.00 Build 0)  -->
<svg version="1.1" id="Layer_1" xmlns="http://www.w3.org/2000/svg" xmlns:xlink="http://www.w3.org/1999/xlink" x="0px" y="0px"
	 viewBox="-42.5 158.7 499 476.6" style="enable-background:new -42.5 158.7 499 476.6;" xml:space="preserve">
<path d="M429.6,376.7v20.4c0,62.4-24.4,121-68.5,165.1c-44.1,44-102.7,68.3-165,68.3h-0.1c-62.4,0-121-24.4-165.1-68.5
	c-44.1-44.1-68.3-102.8-68.3-165.2c0-62.4,24.4-121,68.5-165.1c44.1-44,102.7-68.3,165-68.3h0.1c32.9,0,64.8,6.8,94.9,20.2
	c7,3.1,10.2,11.4,7,18.4c-2.2,5-7.2,8.2-12.7,8.2c-1.9,0-3.8-0.4-5.6-1.2c-26.5-11.8-54.6-17.8-83.6-17.8H196
	c-54.9,0-106.5,21.4-145.4,60.2C11.8,290.3-9.7,341.9-9.7,396.9c-0.1,113.4,92.2,205.8,205.6,205.8h0.1
	c54.9,0,106.5-21.4,145.4-60.2c38.9-38.8,60.3-90.5,60.3-145.4v-20.4c0-7.7,6.2-13.9,13.9-13.9C423.3,362.8,429.6,369,429.6,376.7z
	 M447.4,189.6c-2.6-2.6-6.1-4.1-9.8-4.1s-7.2,1.4-9.8,4.1L196,421.4L140,365.3c-2.6-2.6-6.1-4.1-9.8-4.1c-3.7,0-7.2,1.4-9.8,4.1
	c-2.6,2.6-4.1,6.1-4.1,9.8c0,3.7,1.4,7.2,4.1,9.8l65.9,65.9c2.6,2.6,6.1,4.1,9.8,4.1c3.7,0,7.2-1.4,9.8-4.1l241.6-241.6
	C452.9,203.9,452.9,195.1,447.4,189.6z"/>
</svg>
