<?xml version="1.0" encoding="utf-8"?>
<!-- Generator: Adobe Illustrator 21.0.0, SVG Export Plug-In . SVG Version: 6.00 Build 0)  -->
<svg version="1.1" id="Capa_1" xmlns="http://www.w3.org/2000/svg" xmlns:xlink="http://www.w3.org/1999/xlink" x="0px" y="0px"
	 viewBox="-17.2 141 448.5 512" style="enable-background:new -17.2 141 448.5 512;" xml:space="preserve">
<path d="M418,208.9l-207.4-62.2c-2.3-0.7-4.8-0.7-7.1,0L-4,208.9c-5.2,1.5-8.8,6.4-8.8,11.8v228.2c0,92.7,140.8,175,216.1,198.5
	c1.2,0.4,2.4,0.5,3.7,0.5c1.3,0,2.5-0.2,3.6-0.5c75.4-23.5,216.1-105.8,216.1-198.5V220.7C426.8,215.2,423.2,210.5,418,208.9z
	 M402.1,229.8v219c0,40.9-36.5,79.1-67.2,103.8c-36.8,29.7-84.6,55.9-127.9,70c-43.4-14.1-91.1-40.2-127.9-70
	c-30.7-24.8-67.2-62.9-67.2-103.8v-219L207,171.3L402.1,229.8z M198.5,312c-2.7,0-4.9-0.9-6.7-2.6c-1.8-1.8-2.6-4-2.6-6.7v-15.4
	c0-2.7,0.9-4.9,2.6-6.5c1.8-1.6,4-2.4,6.7-2.4h15.4c2.7,0,4.9,0.8,6.5,2.4c1.6,1.6,2.4,3.8,2.4,6.5v15.4c0,2.7-0.8,4.9-2.4,6.7
	c-1.6,1.8-3.8,2.6-6.5,2.6H198.5z M210.6,516.9h-9.3c-3.6,0-6.6-0.6-8.7-1.8c-2.2-1.2-3.3-2.9-3.3-4.9V352c0-2.1,1.1-3.7,3.3-4.9
	c2.2-1.2,5.1-1.8,8.7-1.8h9.3c3.6,0,6.6,0.6,8.7,1.8c2.2,1.2,3.3,2.9,3.3,4.9v158.2c0,2.1-1.1,3.7-3.3,4.9
	C217.2,516.3,214.3,516.9,210.6,516.9z"/>
</svg>
