<svg xmlns="http://www.w3.org/2000/svg" width="25.105" height="23.983" viewBox="0 0 25.105 23.983"><g transform="translate(-1189.887 -908.94)"><g transform="translate(0.478)"><path d="M-10828.442-1138.788l-5.058-2.1v-6.857h1v6.19l4.442,1.849Z" transform="translate(12035 2063)" fill="#6b798b"/></g><g transform="translate(3.068 -36)"><g transform="translate(1188.44 945.44)"><path d="M245.325,409.316a11.992,11.992,0,0,1-8.913-20.014l.743.669a10.992,10.992,0,1,0,8.17-3.639v-1a11.992,11.992,0,1,1,0,23.983Z" transform="translate(-233.833 -385.833)" fill="#6b798b"/><path d="M244.625,405.289l-.231-4.406-4.194.22-.052-1,5.193-.272.283,5.4Z" transform="translate(-220.229 -408.742) rotate(3)" fill="#6b798b"/></g></g></g></svg>