<svg xmlns="http://www.w3.org/2000/svg" width="161.359" height="151.941" viewBox="0 0 161.359 151.941">
  <g id="Group_241" data-name="Group 241" transform="translate(-287.982 -271.835)">
    <path id="Path_13" data-name="Path 13" d="M364.1,335.669l-15.836-63.254c-.177-.7-.638-.778-1.024-.162L315.048,323.2a1.3,1.3,0,0,0,.421,1.807l2.118,1.3a1.357,1.357,0,0,0,1.837-.429l25.747-40.774c.386-.612.85-.537,1.027.165l12.618,50.4c.09.351.2.818.322,1.283h5.286c-.1-.4-.218-.862-.322-1.283" transform="translate(47.905 0)" fill="#ffc634"/>
    <path id="Path_14" data-name="Path 14" d="M448.763,327.608h-64.18c-.7,0-.789.3-.186.669l5.97,3.636a5.4,5.4,0,0,0,2.382.666h36.606c.707,0,.781.278.161.619l-24.934,13.677a1.23,1.23,0,0,0-.448-.506L288.687,276.057c-.6-.366-.871-.138-.6.515l42.838,101.471a1.288,1.288,0,0,0,1.683.683l2.224-.934a1.281,1.281,0,0,0,.688-1.676l-36.845-87.273c-.273-.65,0-.88.6-.512l100.476,61.193-93.37,51.216c-.617.337-.581.821.079,1.069l37.6,14.183a1.591,1.591,0,0,0,1.855-.652L372.025,371.4a5.373,5.373,0,0,1,1.561-1.85l75.334-41.321c.617-.34.547-.619-.158-.619M363.651,375.74l-19.888,33.476a1.594,1.594,0,0,1-1.857.65l-23.578-8.894c-.659-.247-.693-.731-.076-1.071l44.929-24.644c.62-.34.832-.124.471.484" transform="translate(0 7.696)" fill="#fff"/>
  </g>
</svg>
