<?xml version="1.0" encoding="utf-8"?>
<!-- Generator: Adobe Illustrator 22.1.0, SVG Export Plug-In . SVG Version: 6.00 Build 0)  -->
<svg version="1.1" id="Group_6287" xmlns="http://www.w3.org/2000/svg" xmlns:xlink="http://www.w3.org/1999/xlink" x="0px" y="0px"
	 viewBox="0 0 12 12" style="enable-background:new 0 0 12 12;" xml:space="preserve">
<rect id="Rectangle_20" x="0" y="3.9" width="2.8" height="8.1"/>
<path id="Path_4859" d="M1.4,0C0.6,0,0,0.6,0,1.4c0,0.8,0.6,1.4,1.4,1.4c0.8,0,1.4-0.6,1.4-1.4c0,0,0,0,0,0C2.8,0.6,2.2,0,1.4,0z"/>
<path id="Path_4860" d="M12,6.4c-0.2-1.5-1-2.5-3-2.5c-1.5,0-2,0.2-2.4,0.9l0,0V3.9H4.3V12h2.4V7.8c0-1.1,0.2-1.9,1.5-1.9
	c1.3,0,1.4,1,1.4,1.9V12H12C12,12,12,6.7,12,6.4z"/>
</svg>
