<svg xmlns="http://www.w3.org/2000/svg" width="200.563" height="188.857" viewBox="0 0 200.563 188.857">
  <g id="Group_241" data-name="Group 241" transform="translate(-287.982 -271.835)">
    <path id="Path_13" data-name="Path 13" d="M376.07,351.178l-19.684-78.623c-.22-.873-.793-.967-1.273-.2L315.1,335.685a1.614,1.614,0,0,0,.523,2.247l2.633,1.612a1.687,1.687,0,0,0,2.283-.534l32-50.68c.48-.761,1.057-.667,1.277.206L369.5,351.178c.112.436.252,1.017.4,1.594h6.571c-.123-.494-.27-1.071-.4-1.594" transform="translate(66.071 0)" fill="#5a98c8"/>
    <path id="Path_14" data-name="Path 14" d="M487.827,340.175H408.053c-.876,0-.981.374-.231.832l7.42,4.519a6.708,6.708,0,0,0,2.96.828h45.5c.879,0,.971.346.2.769l-30.992,17a1.529,1.529,0,0,0-.557-.629L288.858,276.1c-.75-.454-1.082-.171-.743.64l53.246,126.124a1.6,1.6,0,0,0,2.092.849l2.764-1.16a1.593,1.593,0,0,0,.855-2.083l-45.8-108.477c-.34-.807,0-1.094.743-.636L426.9,367.416l-116.056,63.66c-.767.419-.722,1.021.1,1.328l46.736,17.629a1.978,1.978,0,0,0,2.305-.811L392.445,394.6a6.679,6.679,0,0,1,1.941-2.3l93.637-51.361c.767-.423.68-.769-.2-.769M382.036,400l-24.72,41.609a1.981,1.981,0,0,1-2.309.807L325.7,431.363c-.82-.308-.862-.909-.095-1.332L381.451,399.4c.771-.423,1.034-.154.585.6" transform="translate(0 10.55)" fill="#25408f"/>
  </g>
</svg>
