<?xml version="1.0" encoding="utf-8"?>
<!-- Generator: Adobe Illustrator 22.1.0, SVG Export Plug-In . SVG Version: 6.00 Build 0)  -->
<svg version="1.1" id="Layer_1" xmlns="http://www.w3.org/2000/svg" xmlns:xlink="http://www.w3.org/1999/xlink" x="0px" y="0px"
	 viewBox="0 0 195 68.9" style="enable-background:new 0 0 195 68.9;" xml:space="preserve">
<g id="Group_223" transform="translate(-185.27 -271.835)">
	<g id="Group_1" transform="translate(185.27 288.922)">
		<path id="Path_1" d="M31.9,1.9L19,33.1h-6.1L0,1.9h7.8L16,24.4l8.1-22.4H31.9z"/>
		<path id="Path_2" d="M54.2,23.6H37.4c0.5,3.2,2.5,5.3,5.8,5.3c1.9,0.1,3.7-0.7,5-2l4.4,3.6c-2.5,2.3-5.9,3.5-9.3,3.4
			c-7.9,0-12.9-5-12.9-11.9S35.5,10,42.6,10c6.8,0,11.7,4.5,11.7,11.9L54.2,23.6z M37.5,19.5h10.2c-0.4-2.8-2.2-4.6-5.1-4.6
			C39.8,14.9,38.1,16.6,37.5,19.5"/>
		<path id="Path_3" d="M74.1,10.8l-1.8,5.4c-0.7-0.3-1.5-0.5-2.2-0.5c-3.4,0-5.3,3-5.3,6.7v10.7h-6.6V10.6H64l0.8,2.9
			c1.1-2.1,3.3-3.5,5.7-3.5C71.7,10,73,10.3,74.1,10.8"/>
		<path id="Path_4" d="M77.4,26c1.5,1.8,3.7,2.9,6,2.9c2.1,0,3.3-0.9,3.3-2.2c0-3.5-11.2-1.2-11.2-9.3c0-4.3,3.5-7.3,9.5-7.3
			c3.7,0,6.9,1.3,8.4,2.7l-3.1,4.2c-1.3-1.1-3-1.8-4.7-1.9c-2.1,0-3.3,0.8-3.3,2.2c0,3.7,11.5,1.6,11.5,9.4c0,4.1-3.4,7.1-9.6,7.1
			c-4.8,0-8.3-1.4-10.3-3.5L77.4,26z"/>
		<rect id="Rectangle_1" x="97.9" y="0" width="6.6" height="33.1"/>
		<path id="Path_5" d="M109.6,3.6c0-2.1,1.6-3.8,3.7-3.8c2.1,0,3.8,1.6,3.8,3.7c0,2.1-1.6,3.8-3.7,3.8c0,0-0.1,0-0.1,0
			C111.3,7.4,109.7,5.7,109.6,3.6 M110.2,10.6h6.6v22.5h-6.6V10.6z"/>
	</g>
	<g id="Group_2" transform="translate(243.45 327.43)">
		<path id="Path_6" d="M7.3,10.7V13H0V0.8h2.8v9.9H7.3z"/>
		<path id="Path_7" d="M8.4,1.4c0-0.8,0.6-1.5,1.5-1.5c0.8,0,1.5,0.6,1.5,1.5c0,0.8-0.6,1.5-1.5,1.5c0,0,0,0,0,0
			C9.1,2.9,8.4,2.2,8.4,1.4 M8.6,4.2h2.6V13H8.6L8.6,4.2z"/>
		<path id="Path_8" d="M22.2,9.3h-6.6c0.1,1.2,1.1,2.1,2.3,2.1c0.7,0,1.5-0.3,2-0.8l1.7,1.4c-1,0.9-2.3,1.4-3.7,1.3
			c-3.1,0-5.1-2-5.1-4.7c-0.1-2.5,1.9-4.6,4.4-4.7c0.1,0,0.2,0,0.3,0c2.4-0.1,4.5,1.7,4.6,4.1c0,0.2,0,0.4,0,0.5L22.2,9.3z
			 M15.6,7.7h4c-0.1-1-1-1.8-2-1.8C16.6,5.8,15.7,6.6,15.6,7.7"/>
		<path id="Path_9" d="M28.6,6.1h-1.9V13h-2.6V6.1H23v-2h1.2V1.6h2.6v2.6h1.9V6.1z"/>
		<path id="Path_10" d="M29.7,9V4.2h2.6V9c0,1.2,0.5,2,1.7,2s1.7-0.8,1.7-2V4.2h2.6V9c0,3.4-2.1,4.3-4.3,4.3S29.7,12.4,29.7,9"/>
		<path id="Path_11" d="M49,4.2L45.1,13H43l-3.9-8.8h2.8l2.2,5.8l2.2-5.8H49z"/>
		<path id="Path_12" d="M58.6,4.2V13h-2.1l-0.3-1c-0.7,0.8-1.8,1.3-2.9,1.3c-2.3,0-4.1-1.7-4.1-4.7s1.8-4.7,4.1-4.7
			c1.1,0,2.2,0.4,2.9,1.3l0.3-1.1L58.6,4.2z M56.1,8.6c-0.1-1.2-1.2-2.1-2.5-1.9s-2.1,1.2-1.9,2.5c0.1,1.1,1.1,1.9,2.2,1.9
			c1.2,0,2.2-1.1,2.2-2.3C56.1,8.7,56.1,8.7,56.1,8.6"/>
	</g>
	<g id="Group_3" transform="translate(310.482 271.835)">
		<path id="Path_13" d="M53.4,26.8L46.8,0.2c-0.1-0.3-0.3-0.3-0.4-0.1L32.8,21.6c-0.2,0.3-0.1,0.6,0.2,0.8c0,0,0,0,0,0l0.9,0.5
			c0.3,0.2,0.6,0.1,0.8-0.2L45.5,5.6c0.2-0.3,0.4-0.2,0.4,0.1l5.3,21.2c0,0.1,0.1,0.3,0.1,0.5h2.2C53.5,27.2,53.5,27,53.4,26.8"/>
		<path id="Path_14" d="M69.5,27.4H41.8c-0.3,0-0.3,0.1-0.1,0.3l2.6,1.6c0.3,0.2,0.7,0.3,1,0.3h15.8c0.3,0,0.3,0.1,0.1,0.3
			l-10.8,5.9c0-0.1-0.1-0.2-0.2-0.2L0.3,5C0,4.9-0.1,5,0,5.2l18.5,44c0.1,0.3,0.4,0.4,0.7,0.3c0,0,0,0,0,0l1-0.4
			c0.3-0.1,0.4-0.4,0.3-0.7c0,0,0,0,0,0L4.6,10.6c-0.1-0.3,0-0.4,0.3-0.2l43.5,26.5L8,59.1c-0.3,0.1-0.3,0.4,0,0.5l16.3,6.1
			c0.3,0.1,0.6,0,0.8-0.3l11.3-19c0.2-0.3,0.4-0.6,0.7-0.8l32.6-17.9C69.9,27.5,69.8,27.4,69.5,27.4 M32.7,48.2l-8.6,14.5
			C24,63,23.6,63.1,23.3,63l-10.2-3.9c-0.3-0.1-0.3-0.3,0-0.5L32.5,48C32.8,47.9,32.9,48,32.7,48.2"/>
	</g>
</g>
</svg>
