<?xml version="1.0" encoding="utf-8"?>
<!-- Generator: Adobe Illustrator 22.1.0, SVG Export Plug-In . SVG Version: 6.00 Build 0)  -->
<svg version="1.1" id="Layer_1" xmlns="http://www.w3.org/2000/svg" xmlns:xlink="http://www.w3.org/1999/xlink" x="0px" y="0px"
	 viewBox="0 0 20 14.6" enable-background="new 0 0 20 14.6" xml:space="preserve">
<g id="Icon_ionic-ios-mail-unread" transform="translate(-3.375 -7.313)">
	<path id="Path_5194" d="M23.4,9.6c0,1.3-1,2.3-2.3,2.3s-2.3-1-2.3-2.3s1-2.3,2.3-2.3C22.3,7.3,23.4,8.3,23.4,9.6L23.4,9.6z"/>
	<g id="Group_5834" transform="translate(3.375 8.082)">
		<path id="Path_5195" d="M17.7,4.7c-0.3,0-0.5,0-0.8-0.1L14.7,7c0,0,0,0.1,0,0.1c0,0,0,0,0,0l3.6,3.9c0.2,0.2,0.2,0.6,0,0.9
			c0,0,0,0,0,0c-0.2,0.2-0.6,0.2-0.9,0L13.8,8c0,0-0.1,0-0.1,0l-0.9,0.9c-0.7,0.7-1.7,1.2-2.8,1.2c-1.1,0-2.1-0.4-2.8-1.2L6.4,8
			c0,0-0.1,0-0.1,0l-3.6,3.8c-0.2,0.2-0.6,0.2-0.9,0c-0.2-0.2-0.2-0.6,0-0.9c0,0,0,0,0,0l3.6-3.9c0,0,0-0.1,0-0.1L0.2,1.7
			c0,0-0.1,0-0.1,0c0,0,0,0,0,0.1v10.5c0,0.8,0.7,1.5,1.5,1.5h16.9c0.8,0,1.5-0.7,1.5-1.5V3.7C19.4,4.4,18.6,4.7,17.7,4.7z"/>
		<path id="Path_5196" d="M14.5,1.5c0-0.5,0.1-1.1,0.4-1.5H1.5c-0.3,0-0.7,0.1-1,0.3L8.1,8c1,1,2.7,1.1,3.7,0c0,0,0,0,0,0l3.9-3.9
			C15,3.5,14.5,2.5,14.5,1.5z"/>
	</g>
</g>
</svg>
