<?xml version="1.0" encoding="utf-8"?>
<!-- Generator: Adobe Illustrator 22.1.0, SVG Export Plug-In . SVG Version: 6.00 Build 0)  -->
<svg version="1.1" id="Layer_1" xmlns="http://www.w3.org/2000/svg" xmlns:xlink="http://www.w3.org/1999/xlink" x="0px" y="0px"
	 viewBox="0 0 20 14.6" enable-background="new 0 0 20 14.6" xml:space="preserve">
<g>
	<path fill="#5A98C8" d="M20,2.2l-5.5,5.5l3.8,4.1c0.2,0.3,0.2,0.6,0,0.9c-0.1,0.1-0.3,0.1-0.4,0.1c-0.2,0-0.3-0.1-0.5-0.2l-3.8-4
		l-1.1,1.1c-0.7,0.7-1.6,1.1-2.5,1.1s-1.8-0.4-2.5-1.1L6.4,8.6l-3.8,4c-0.1,0.1-0.3,0.2-0.4,0.2c-0.2,0-0.3,0-0.4-0.2
		c-0.3-0.2-0.3-0.6,0-0.9l3.8-4.1L0,2.2v0.1v10.8c0,0.8,0.7,1.5,1.5,1.5h17c0.8,0,1.5-0.7,1.5-1.5V2.2C20,2.3,20,2.3,20,2.2z"/>
	<path fill="#5A98C8" d="M11.7,8.8l7.7-7.7c-0.3-0.2-0.6-0.3-0.9-0.3h-17c-0.3,0-0.6,0.1-0.9,0.3l7.7,7.7C9.3,9.7,10.8,9.7,11.7,8.8
		z"/>
</g>
</svg>
