<svg xmlns="http://www.w3.org/2000/svg" width="86.009" height="71.5" viewBox="0 0 86.009 71.5">
  <g id="Group_5864" data-name="Group 5864" transform="translate(-672.57 -329.25)">
    <circle id="Ellipse_22" data-name="Ellipse 22" cx="6.364" cy="6.364" r="6.364" transform="translate(709.107 330)" fill="none" stroke="#e5a708" stroke-linecap="round" stroke-miterlimit="10" stroke-width="1.5"/>
    <path id="Path_5251" data-name="Path 5251" d="M704.223,364.2v-8.826A9.375,9.375,0,0,1,713.6,346h0a9.374,9.374,0,0,1,9.375,9.375V364.2" transform="translate(1.873 0.97)" fill="none" stroke="#5a98c8" stroke-linecap="round" stroke-miterlimit="10" stroke-width="1.5"/>
    <circle id="Ellipse_23" data-name="Ellipse 23" cx="6.364" cy="6.364" r="6.364" transform="translate(678.062 340.606)" fill="none" stroke="#00327d" stroke-linecap="round" stroke-miterlimit="10" stroke-width="1.5"/>
    <g id="Group_5860" data-name="Group 5860" transform="translate(709.864 351.191)">
      <line id="Line_49" data-name="Line 49" y2="1.922" transform="translate(11.213 8.965)" fill="none" stroke="#5a98c8" stroke-linecap="round" stroke-miterlimit="10" stroke-width="1"/>
      <path id="Path_5252" data-name="Path 5252" d="M715.793,350.74a5.6,5.6,0,0,1,2.711,4.8v1.073" transform="translate(-707.29 -349.934)" fill="none" stroke="#5a98c8" stroke-linecap="round" stroke-miterlimit="10" stroke-width="1"/>
      <path id="Path_5253" data-name="Path 5253" d="M707.776,360.867v-5.28a5.607,5.607,0,0,1,5.606-5.607h0" transform="translate(-707.776 -349.98)" fill="none" stroke="#5a98c8" stroke-linecap="round" stroke-miterlimit="10" stroke-width="1"/>
    </g>
    <circle id="Ellipse_24" data-name="Ellipse 24" cx="6.364" cy="6.364" r="6.364" transform="translate(739.799 340.606)" fill="none" stroke="#00327d" stroke-linecap="round" stroke-miterlimit="10" stroke-width="1.5"/>
    <g id="Group_5861" data-name="Group 5861" transform="translate(673.32 356.792)">
      <path id="Path_5254" data-name="Path 5254" d="M676.791,377.257V362.685a7.424,7.424,0,0,1,7.424-7.424h0a7.424,7.424,0,0,1,7.424,7.424v11.233" transform="translate(-673.11 -355.261)" fill="none" stroke="#00327d" stroke-linecap="round" stroke-miterlimit="10" stroke-width="1.5"/>
      <path id="Path_5255" data-name="Path 5255" d="M691.861,373h4.255a6.37,6.37,0,0,1,6.351,6.351h0v18.043H696.1V382.545H684.215a7.424,7.424,0,0,1-7.424-7.424" transform="translate(-673.11 -354.186)" fill="none" stroke="#00327d" stroke-linecap="round" stroke-miterlimit="10" stroke-width="1.5"/>
      <path id="Path_5256" data-name="Path 5256" d="M692.237,387.378h-8.79a10.127,10.127,0,0,1-10.127-10.127V363.265" transform="translate(-673.32 -354.776)" fill="none" stroke="#00327d" stroke-linecap="round" stroke-miterlimit="10" stroke-width="1.5"/>
      <path id="Path_5257" data-name="Path 5257" d="M687.82,373.911H686.3a2.911,2.911,0,0,1-2.977-2.84v-4.984" transform="translate(-672.714 -354.605)" fill="none" stroke="#00327d" stroke-linecap="round" stroke-miterlimit="10" stroke-width="1"/>
      <line id="Line_50" data-name="Line 50" y1="2.911" transform="translate(10.606 6.423)" fill="none" stroke="#00327d" stroke-linecap="round" stroke-miterlimit="10" stroke-width="1"/>
    </g>
    <g id="Group_5862" data-name="Group 5862" transform="translate(728.471 356.792)">
      <path id="Path_5258" data-name="Path 5258" d="M750.377,377.257V362.685a7.424,7.424,0,0,0-7.424-7.424h0a7.424,7.424,0,0,0-7.424,7.424v11.233" transform="translate(-724.701 -355.261)" fill="none" stroke="#00327d" stroke-linecap="round" stroke-miterlimit="10" stroke-width="1.5"/>
      <path id="Path_5259" data-name="Path 5259" d="M735.926,373h-4.254a6.37,6.37,0,0,0-6.352,6.351h0v18.043h6.364V382.545h11.888A7.424,7.424,0,0,0,751,375.121" transform="translate(-725.32 -354.186)" fill="none" stroke="#00327d" stroke-linecap="round" stroke-miterlimit="10" stroke-width="1.5"/>
      <path id="Path_5260" data-name="Path 5260" d="M735.164,387.378h8.79a10.127,10.127,0,0,0,10.127-10.127V363.265" transform="translate(-724.723 -354.776)" fill="none" stroke="#00327d" stroke-linecap="round" stroke-miterlimit="10" stroke-width="1.5"/>
      <path id="Path_5261" data-name="Path 5261" d="M738.757,373.911h1.523a2.911,2.911,0,0,0,2.977-2.84v-4.984" transform="translate(-724.506 -354.605)" fill="none" stroke="#00327d" stroke-linecap="round" stroke-miterlimit="10" stroke-width="1"/>
      <line id="Line_51" data-name="Line 51" y1="2.911" transform="translate(18.752 6.423)" fill="none" stroke="#00327d" stroke-linecap="round" stroke-miterlimit="10" stroke-width="1"/>
    </g>
    <line id="Line_52" data-name="Line 52" x2="36.061" transform="translate(697.375 369.242)" fill="none" stroke="#5a98c8" stroke-linecap="round" stroke-miterlimit="10" stroke-width="1.5"/>
    <g id="Group_5863" data-name="Group 5863" transform="translate(712.223 374.545)">
      <line id="Line_53" data-name="Line 53" x2="6.364" transform="translate(0 3.182)" fill="none" stroke="#00327d" stroke-linecap="round" stroke-miterlimit="10" stroke-width="1.5"/>
      <line id="Line_54" data-name="Line 54" y1="6.364" transform="translate(3.182)" fill="none" stroke="#00327d" stroke-linecap="round" stroke-miterlimit="10" stroke-width="1.5"/>
    </g>
  </g>
</svg>
