<svg xmlns="http://www.w3.org/2000/svg" width="88.058" height="66.311" viewBox="0 0 88.058 66.311">
  <g id="Group_5859" data-name="Group 5859" transform="translate(0.75 0.75)">
    <path id="Path_5236" data-name="Path 5236" d="M1193,346.7a19.049,19.049,0,1,1-4.709-4.988" transform="translate(-1109.622 -329.754)" fill="none" stroke="#5a98c8" stroke-linecap="round" stroke-miterlimit="10" stroke-width="1.5"/>
    <path id="Path_5237" data-name="Path 5237" d="M1196.683,360.743" transform="translate(-1110.581 -330.318)" fill="none" stroke="#00327d" stroke-linecap="round" stroke-miterlimit="10" stroke-width="1.5"/>
    <path id="Path_5238" data-name="Path 5238" d="M1196.38,353.715" transform="translate(-1110.574 -330.143)" fill="none" stroke="#00327d" stroke-linecap="round" stroke-miterlimit="10" stroke-width="1.5"/>
    <path id="Path_5239" data-name="Path 5239" d="M1186.888,368.539a15.025,15.025,0,1,1-.989-23.564" transform="translate(-1109.723 -329.856)" fill="none" stroke="#5a98c8" stroke-linecap="round" stroke-miterlimit="10" stroke-width="1"/>
    <path id="Path_5240" data-name="Path 5240" d="M1171.931,355.909l5.186,4.865,19.1-20.691" transform="translate(-1109.967 -329.805)" fill="none" stroke="#e5a708" stroke-linecap="round" stroke-miterlimit="10" stroke-width="1.5"/>
    <g id="Group_5858" data-name="Group 5858" transform="translate(50.334 41.667)">
      <line id="Line_37" data-name="Line 37" x1="3.159" y2="3.886" fill="none" stroke="#5a98c8" stroke-linecap="round" stroke-miterlimit="10" stroke-width="1.5"/>
      <line id="Line_38" data-name="Line 38" x1="3.159" y2="3.886" transform="translate(3.109 2.527)" fill="none" stroke="#5a98c8" stroke-linecap="round" stroke-miterlimit="10" stroke-width="1.5"/>
    </g>
    <path id="Path_5241" data-name="Path 5241" d="M1146.728,388.949a4.006,4.006,0,1,0,6.217,5.054l11.373-13.989-6.218-5.054Z" transform="translate(-1109.32 -330.67)" fill="none" stroke="#5a98c8" stroke-linecap="round" stroke-miterlimit="10" stroke-width="1.5"/>
    <path id="Path_5242" data-name="Path 5242" d="M1192.056,360.866" transform="translate(-1110.467 -330.321)" fill="none" stroke="#00327d" stroke-linecap="round" stroke-miterlimit="10" stroke-width="1"/>
    <path id="Path_5243" data-name="Path 5243" d="M1191.947,354.855a15.109,15.109,0,0,1,.366,2.642" transform="translate(-1110.464 -330.172)" fill="none" stroke="#5a98c8" stroke-linecap="round" stroke-miterlimit="10" stroke-width="1"/>
    <path id="Path_5244" data-name="Path 5244" d="M1192.246,358.152" transform="translate(-1110.471 -330.253)" fill="none" stroke="#00327d" stroke-linecap="round" stroke-miterlimit="10" stroke-width="1"/>
    <path id="Path_5245" data-name="Path 5245" d="M1191.874,354.78" transform="translate(-1110.462 -330.17)" fill="none" stroke="#00327d" stroke-linecap="round" stroke-miterlimit="10" stroke-width="1"/>
    <path id="Path_5246" data-name="Path 5246" d="M1152.145,352.368h-37.8c-3.277,0-5.957,3-5.957,6.678v20.928c0,3.674,2.68,6.678,5.957,6.678h27.724" transform="translate(-1108.391 -330.11)" fill="none" stroke="#00327d" stroke-linecap="round" stroke-miterlimit="10" stroke-width="1.5"/>
    <line id="Line_39" data-name="Line 39" x2="35.408" transform="translate(8.639 33.073)" fill="none" stroke="#00327d" stroke-linecap="round" stroke-miterlimit="10" stroke-width="1"/>
    <line id="Line_40" data-name="Line 40" x2="22.462" transform="translate(8.639 29.032)" fill="none" stroke="#00327d" stroke-linecap="round" stroke-miterlimit="10" stroke-width="1"/>
    <path id="Path_5247" data-name="Path 5247" d="M1123.167,374.605s.037-4.788,0-4.787l-.049,0a4.794,4.794,0,1,0,4.415,2.453C1125.47,373.449,1123.167,374.605,1123.167,374.605Z" transform="translate(-1108.643 -330.543)" fill="none" stroke="#00327d" stroke-linecap="round" stroke-linejoin="round" stroke-width="1.5"/>
    <line id="Line_41" data-name="Line 41" y1="4.795" transform="translate(29.811 44.058)" fill="none" stroke="#00327d" stroke-linecap="round" stroke-linejoin="round" stroke-width="1.5"/>
    <line id="Line_42" data-name="Line 42" y1="8.391" transform="translate(33.407 40.462)" fill="none" stroke="#00327d" stroke-linecap="round" stroke-linejoin="round" stroke-width="1.5"/>
    <line id="Line_43" data-name="Line 43" y1="2.398" transform="translate(26.215 46.456)" fill="none" stroke="#00327d" stroke-linecap="round" stroke-linejoin="round" stroke-width="1.5"/>
    <path id="Path_5248" data-name="Path 5248" d="M1125.521,348.8v-7.521h10.236" transform="translate(-1108.816 -329.835)" fill="none" stroke="#00327d" stroke-linejoin="round" stroke-width="1.5"/>
    <path id="Path_5249" data-name="Path 5249" d="M1136.477,348.629V334.544h10.748v14.085h0" transform="translate(-1109.088 -329.668)" fill="none" stroke="#00327d" stroke-linejoin="round" stroke-width="1.5"/>
    <path id="Path_5250" data-name="Path 5250" d="M1142.477,334.852v-5.309H1162v10.185" transform="translate(-1109.237 -329.544)" fill="none" stroke="#00327d" stroke-linejoin="round" stroke-width="1.5"/>
    <line id="Line_44" data-name="Line 44" y1="4.795" transform="translate(43.464 10.902)" fill="none" stroke="#00327d" stroke-linecap="round" stroke-linejoin="round" stroke-width="1.5"/>
    <line id="Line_45" data-name="Line 45" y1="8.391" transform="translate(47.06 7.306)" fill="none" stroke="#00327d" stroke-linecap="round" stroke-linejoin="round" stroke-width="1.5"/>
    <line id="Line_46" data-name="Line 46" y1="2.398" transform="translate(34.016 13.3)" fill="none" stroke="#00327d" stroke-linecap="round" stroke-linejoin="round" stroke-width="1.5"/>
    <line id="Line_47" data-name="Line 47" y1="2.398" transform="translate(31.091 13.3)" fill="none" stroke="#00327d" stroke-linecap="round" stroke-linejoin="round" stroke-width="1.5"/>
    <line id="Line_48" data-name="Line 48" x2="4.909" transform="translate(33.994 29.032)" fill="none" stroke="#00327d" stroke-linecap="round" stroke-miterlimit="10" stroke-width="1"/>
  </g>
</svg>
