<?xml version="1.0" encoding="utf-8"?>
<!-- Generator: Adobe Illustrator 21.0.0, SVG Export Plug-In . SVG Version: 6.00 Build 0)  -->
<svg version="1.1" id="Layer_1" xmlns="http://www.w3.org/2000/svg" xmlns:xlink="http://www.w3.org/1999/xlink" x="0px" y="0px"
	 viewBox="0 0 14 14" style="enable-background:new 0 0 14 14;" xml:space="preserve">
<path d="M7,9.8c-1.5,0-2.8-1.2-2.8-2.7s1.2-2.8,2.7-2.8c0,0,0.1,0,0.1,0c1.5,0,2.7,1.3,2.7,2.8C9.7,8.5,8.5,9.7,7,9.8z M13.6,8.1
	c-0.5-0.1-1-0.5-1-1.1s0.4-1,1-1.1c0.1,0,0.2-0.1,0.3-0.2C14,5.7,14,5.5,14,5.5c-0.2-0.8-0.5-1.6-1-2.3C13,3.1,12.9,3,12.7,3
	c-0.1,0-0.2,0-0.3,0.1C12,3.4,11.4,3.4,11,3c-0.4-0.4-0.4-1-0.1-1.4C11,1.5,11.1,1.4,11,1.3C11,1.1,10.9,1,10.8,1
	c-0.7-0.5-1.5-0.8-2.3-1C8.5,0,8.3,0,8.2,0.1C8.1,0.1,8.1,0.3,8.1,0.4C8,0.9,7.5,1.3,7,1.3s-1-0.4-1.1-1c0-0.1-0.1-0.2-0.2-0.3
	C5.7,0,5.6,0,5.5,0C4.7,0.2,3.9,0.5,3.2,1C3.1,1,3,1.1,3,1.3c0,0.1,0,0.2,0.1,0.3C3.4,2,3.4,2.6,3,3C2.6,3.4,2,3.4,1.6,3.1
	C1.5,3,1.4,2.9,1.3,3C1.1,3,1,3.1,1,3.2C0.5,3.9,0.2,4.6,0,5.5c0,0.1,0,0.2,0.1,0.3c0.1,0.1,0.2,0.2,0.3,0.2c0.6,0.1,1,0.5,1,1.1
	s-0.4,1-1,1.1c-0.1,0-0.2,0.1-0.3,0.2C0,8.3,0,8.4,0,8.5c0.2,0.8,0.5,1.6,1,2.3C1,10.9,1.1,11,1.3,11c0.1,0,0.2,0,0.3-0.1
	C2,10.6,2.6,10.6,3,11c0.4,0.4,0.4,1,0.1,1.4C3,12.5,2.9,12.6,3,12.7C3,12.9,3.1,13,3.2,13c0.7,0.5,1.4,0.8,2.3,1
	c0.1,0,0.2,0,0.3-0.1c0.1-0.1,0.2-0.2,0.2-0.3c0.1-0.6,0.5-1,1.1-1s1,0.4,1.1,1c0,0.1,0.1,0.2,0.2,0.3C8.3,14,8.4,14,8.4,14h0.1
	c0.8-0.2,1.6-0.5,2.3-1c0.1-0.1,0.2-0.2,0.2-0.3c0-0.1,0-0.2-0.1-0.3c-0.4-0.4-0.3-1,0.1-1.4c0.4-0.4,1-0.4,1.4-0.1
	c0.1,0.1,0.2,0.1,0.3,0.1c0.1,0,0.2-0.1,0.3-0.2c0.5-0.7,0.8-1.5,1-2.3c0-0.1,0-0.2-0.1-0.3C13.9,8.1,13.7,8.1,13.6,8.1L13.6,8.1z"
	/>
</svg>
