<?xml version="1.0" encoding="utf-8"?>
<!-- Generator: Adobe Illustrator 22.1.0, SVG Export Plug-In . SVG Version: 6.00 Build 0)  -->
<svg version="1.1" id="Group_6285" xmlns="http://www.w3.org/2000/svg" xmlns:xlink="http://www.w3.org/1999/xlink" x="0px" y="0px"
	 viewBox="0 0 14.6 12" style="enable-background:new 0 0 14.6 12;" xml:space="preserve">
<g id="Group_6265">
	<path id="Path_5314" d="M14.5,1.4c-0.5,0.2-1,0.3-1.5,0.4c0.2,0,0.6-0.5,0.7-0.6C14,1,14.2,0.6,14.3,0.3c0,0,0-0.1,0-0.1
		c0,0-0.1,0-0.1,0c-0.6,0.3-1.1,0.5-1.7,0.7c0,0-0.1,0-0.1,0c0-0.1-0.1-0.1-0.2-0.2c-0.3-0.2-0.5-0.4-0.8-0.5C10.9,0,10.5,0,10,0
		C9.6,0,9.2,0.2,8.8,0.4c-0.4,0.2-0.7,0.5-1,0.8C7.5,1.5,7.3,1.9,7.2,2.4c-0.1,0.4-0.1,0.8,0,1.3c0,0.1,0,0.1-0.1,0.1
		c-2.3-0.2-4.5-1.3-6-3.1C1,0.5,1,0.5,0.9,0.6C0.3,1.8,0.5,3.3,1.4,4.2c0.1,0.1,0.2,0.2,0.4,0.3C1.4,4.5,1,4.4,0.7,4.2
		c-0.1,0-0.1,0-0.1,0.1c0,0.1,0,0.2,0,0.3c0.1,1.1,0.9,2,1.9,2.5c0.1,0.1,0.3,0.1,0.4,0.1c-0.4,0.1-0.8,0.1-1.1,0
		c-0.1,0-0.1,0-0.1,0.1c0.4,1,1.3,1.8,2.4,2c0.1,0,0.2,0,0.3,0c0,0,0,0,0,0c-0.5,0.4-1,0.7-1.6,0.9c-0.8,0.3-1.6,0.4-2.5,0.3
		c-0.1,0-0.2,0-0.2,0s0,0.1,0,0.1c0.2,0.1,0.3,0.2,0.5,0.3c0.5,0.3,1.1,0.5,1.7,0.7c3,0.9,6.3,0.1,8.6-2c1.6-1.8,2.5-4.1,2.4-6.6
		c0-0.1,0.1-0.1,0.2-0.2c0.4-0.3,0.8-0.8,1.2-1.2C14.5,1.6,14.6,1.5,14.5,1.4L14.5,1.4C14.6,1.4,14.6,1.4,14.5,1.4z"/>
</g>
<g id="Group_6266" transform="translate(4.327 11.948)">
	<path id="Path_5315" d="M0,0"/>
</g>
<g id="Group_6267" transform="translate(4.216 11.948)">
	<path id="Path_5316" d="M0.1,0C0.1,0-0.1,0,0.1,0z"/>
</g>
<g id="Group_6268" transform="translate(4.818 11.95)">
	<path id="Path_5317" d="M0,0C0,0,0.3,0,0,0C0,0,0,0,0,0z"/>
</g>
<g id="Group_6269" transform="translate(9.91 0.018)">
	<path id="Path_5318" d="M0.1,0C0,0,0,0,0.1,0L0.1,0z"/>
</g>
</svg>
