<?xml version="1.0" encoding="utf-8"?>
<!-- Generator: Adobe Illustrator 21.0.0, SVG Export Plug-In . SVG Version: 6.00 Build 0)  -->
<svg version="1.1" id="Layer_1" xmlns="http://www.w3.org/2000/svg" xmlns:xlink="http://www.w3.org/1999/xlink" x="0px" y="0px"
	 viewBox="0 0 38.8 24.8" style="enable-background:new 0 0 38.8 24.8;" xml:space="preserve">
<path d="M31.4,10.5l0-0.3c0-5.5-4.4-9.9-9.8-9.9c-3.8,0-7.2,2.2-8.8,5.6C10.3,4.6,7.3,5.6,6,8.1c-0.2,0.5-0.4,1-0.5,1.5
	c-3.1,1.1-5.2,4-5.2,7.3c0,4.2,3.4,7.6,7.6,7.7h8.7v-6.7h-4.1l6.8-7.1l6.8,7h-4.1v6.7h9.4c3.8,0,6.9-3.2,6.9-7
	C38.4,13.6,35.3,10.5,31.4,10.5L31.4,10.5z"/>
</svg>
